<?xml version="1.0" encoding="UTF-8" standalone="no"?>
<svg width="446px" height="158px" viewBox="0 0 446 158" version="1.1" xmlns="http://www.w3.org/2000/svg" xmlns:xlink="http://www.w3.org/1999/xlink" xmlns:sketch="http://www.bohemiancoding.com/sketch/ns">
    <title>Artboard 1</title>
    <description>Created with Sketch (http://www.bohemiancoding.com/sketch)</description>
    <defs></defs>
    <g id="Page-1" stroke="none" stroke-width="1" fill="none" fill-rule="evenodd" sketch:type="MSPage">
        <g id="Artboard-1" sketch:type="MSArtboardGroup">
            <g id="ARE-GETTING-copy-+-Amy-&amp;-Chris-+-Married-In-New-York" sketch:type="MSLayerGroup">
                <path d="M369.788631,62.657293 C367.960879,64.6545518 365.612618,66 362.592599,66 C359.615694,66 357.443228,64.3554427 356.289438,61.937753 C354.308587,64.3203444 351.667928,66 348.142857,66 C343.946429,66 348.142857,66 348.142857,66 C343.946429,66 338.946429,63.6976242 338.946429,55.9049676 C338.946429,50.237581 340.553571,43.950324 343.410714,36.3347732 L336.625,36.3347732 L335.642857,36.3347732 C335.553571,39.7883369 335.017857,47.4924406 333.410714,52.6285097 C333.183409,53.3568526 332.822563,53.8203059 332.395232,54.0720736 L332.395232,54.0720736 C330.61974,59.5889106 327.16664,66 320.374033,66 C315.720664,66 312.998882,62.2150072 312.998882,57.7258297 L312.998882,39.8571429 C312.998882,37.1284271 312.823283,34.8398268 311.155094,34.8398268 C308.60891,34.8398268 303.165346,42.4098124 302.55075,49.3636364 L302.55075,62.2150072 C302.55075,63.8874459 302.63855,66 300.092366,66 C298.336378,66 295.877994,65.3838384 295.877994,62.1269841 L295.877994,9.31313131 C295.877994,6.76046176 295.877994,9.31313131 295.877994,9.31313131 C295.877994,6.76046176 295,6.58441558 295,5.96825397 C295,5.35209235 296.58039,5 297.809582,5 C300.706962,5 302.55075,6.76046176 302.55075,8.87301587 L302.55075,37.7445887 C304.921335,32.8152958 308.082114,29.030303 312.384286,29.030303 C318.266847,29.030303 319.671638,33.8715729 319.671638,37.9206349 L319.671638,56.1414141 C319.671638,56.9336219 319.671638,60.1904762 321.954423,60.1904762 C325.4664,60.1904762 327.046789,54.5569986 327.836984,50.6839827 C328.03523,49.6736626 328.364036,48.9999204 328.762569,48.5906286 C329.481115,44.745397 329.761597,38.6704208 329.839286,34.7408207 C327.607143,33.5010799 326,31.6414687 326,29.0734341 C326,26.5939525 328.142857,25 330.464286,25 C332.607143,25 335.107143,26.062635 336.089286,29.6933045 C339.035714,30.0475162 339.928571,30.0475162 340.821429,30.0475162 L345.464286,30.0475162 C346.535714,30.0475162 350.107143,32.9697624 349.75,35.0064795 C349.75,36.0691145 345.732143,46.5183585 345.732143,55.3736501 C345.732143,57.8531317 346.892857,60.1555076 349.303571,60.1555076 C352.832585,60.1555076 354.449954,55.9713325 355.345118,52.3216856 L355.345118,52.3216856 L355.345118,33.4219512 C355.345118,31.7073171 355,31.1658537 355,30.5341463 C355,29.6317073 356.035354,29 357.243268,29 C360.090493,29 361.902363,30.804878 361.902363,32.9707317 L361.902363,55.8926829 C361.902363,56.704878 361.902363,55.8926829 361.902363,55.8926829 C361.902363,56.704878 361.902363,60.0439024 364.145631,60.0439024 C365.340388,60.0439024 366.30766,59.3517186 367.093981,58.2818596 C366.634434,55.7565759 367.945188,53.7055332 369.180445,53.497026 C369.489357,52.3967012 369.732146,51.2906792 369.92636,50.297561 C370.150753,49.1044891 370.545359,48.369221 371.018831,47.9787565 C371.97326,44.3950025 373.503951,40.1223205 374.843008,36.1096774 C373.976639,34.7870968 373.456818,33.4645161 373.456818,31.9655914 C373.456818,28.9677419 378.481758,25 380.820954,25 C382.90024,25 383.939882,26.5870968 383.939882,28.9677419 C383.939882,31.5247312 381.947234,34.4344086 381.860597,34.9634409 C385.932531,42.2817204 391.217382,45.455914 391.217382,53.8322581 C391.217382,54.8903226 391.044108,56.0365591 390.784197,57.0064516 C394.856132,56.1247312 396.935417,53.4795699 397.888423,50.6580645 C398.494881,48.9827957 399.10134,48.2774194 399.881072,48.2774194 C401.353899,48.2774194 403,50.5698925 403,51.8043011 C403,53.5677419 401.007351,56.9182796 399.014703,58.5935484 C396.328959,60.7978495 392.776846,62.4731183 387.405358,62.8258065 C385.326073,64.6774194 382.467055,66 378.914942,66 C375.533981,66 371.704243,64.2492071 369.788631,62.657293 Z M373.889839,55.3249616 C374.170396,54.5391754 374.417526,53.7578261 374.635374,52.9999228 C375.071519,52.7109602 375.427295,52.2110817 375.62274,51.4516129 C376.74902,47.2193548 377.615389,44.2215054 379.001579,40.7827957 C382.033871,43.9569892 385.239436,47.6602151 385.239436,53.2150538 C385.239436,55.4193548 384.28643,57.4473118 383.333424,58.5935484 C380.760881,58.5935484 376.935582,56.7899557 373.889839,55.3249616 Z M148.629951,49.753444 C148.861222,50.2395742 149,50.7572369 149,51.252381 C149,51.3428571 149,51.5238095 148.91196,51.8857143 C147.327243,57.8571429 148.91196,51.8857143 148.91196,51.8857143 C148.813111,52.2581921 148.707068,52.6391185 148.593276,53.0259905 C148.711317,57.4706158 150.164309,59.8501259 152.571429,59.8501259 C156.037471,59.8501259 158.637002,54.0377834 159.676815,47.7783375 L159.676815,33.3816121 C159.676815,31.6826196 159.330211,31.1460957 159.330211,30.5201511 C159.330211,29.6259446 160.370023,29 161.583138,29 C164.442623,29 166.262295,30.7884131 166.262295,32.9345088 L166.262295,64.3211587 C169.381733,60.7443325 172.154567,56.2732997 173.887588,50.1032746 C174.407494,48.2254408 175.100703,47.4206549 175.967213,47.4206549 C177.35363,47.4206549 179,49.3879093 179,51.0869018 C179,51.1763224 179,51.6234257 178.913349,51.9811083 C175.967213,62.3539043 170.941452,67.6297229 166.262295,71.8324937 L166.262295,87.302267 C166.262295,96.6914358 161.669789,100 157.250585,100 C152.398126,100 148.932084,95.4395466 148.932084,89.7166247 C148.932084,80.6851385 153.957845,76.1246851 159.676815,70.9382872 L159.676815,59.581864 C157.59719,63.1586902 154.911007,65.7518892 151.185012,65.7518892 C148.176838,65.7518892 145.820053,64.3834632 144.247253,61.9824762 C142.30634,64.3461155 139.734518,66 136.322259,66 C131.656146,66 128.92691,62.1095238 128.92691,57.4952381 L128.92691,39.1285714 C128.92691,36.3238095 128.750831,33.9714286 127.254153,33.9714286 C124.877076,33.9714286 119.858804,41.752381 119.330565,48.9 L119.330565,62.1095238 C119.330565,63.8285714 119.418605,66 116.865449,66 C115.104651,66 112.639535,65.3666667 112.639535,62.0190476 L112.639535,39.1285714 C112.639535,36.3238095 112.463455,33.9714286 110.966777,33.9714286 C108.589701,33.9714286 103.571429,41.752381 103.043189,48.9 L103.043189,62.1095238 C103.043189,63.8285714 103.131229,66 100.578073,66 C98.8172757,66 96.3521595,65.3666667 96.3521595,62.0190476 L96.3521595,33.3380952 C96.3521595,31.6190476 96,31.0761905 96,30.4428571 C96,29.5380952 97.0564784,28.9047619 98.2890365,28.9047619 C101.194352,28.9047619 103.043189,30.7142857 103.043189,32.8857143 L103.043189,36.6857143 C105.332226,31.8 108.413621,28 112.375415,28 C117.657807,28 119.154485,32.4333333 119.330565,36.5047619 C121.531561,31.7095238 124.612957,28 128.574751,28 C134.297342,28 135.61794,32.9761905 135.61794,37.1380952 L135.61794,55.8666667 C135.61794,56.6809524 135.61794,60.0285714 137.906977,60.0285714 C139.87166,60.0285714 141.233495,58.2262979 142.191219,55.9414447 C142.064579,54.9749173 142,53.950748 142,52.8753149 C142,43.3967254 145.119438,32.7556675 145.119438,32.7556675 C145.725995,31.2355164 145.119438,29.4471033 149.711944,29.4471033 C153.957845,29.4471033 151.444965,33.0239295 151.098361,34.3652393 C149.734649,40.1508057 148.834623,43.8856268 148.629951,49.753444 L148.629951,49.753444 Z M70.3592018,29.0333333 C81.1796009,29.0333333 92,21.6186667 92,11.3453333 C92,5.00266667 87.7427938,0 80.4700665,0 C63.6186253,0 52,21.0826667 52,40.8253333 C52,60.032 58.7405765,67 68.4079823,67 C74.616408,67 79.9379157,62.5333333 82.5986696,56.9053333 C82.864745,64.1413333 82.6873614,66.464 85.7915743,66.464 C87.7427938,66.464 90.3148559,65.4813333 90.3148559,64.32 C90.3148559,64.1413333 90.2261641,63.9626667 90.0487805,63.6946667 C89.6940133,60.836 89.2505543,55.8333333 89.2505543,44.1306667 C89.2505543,37.1626667 89.9600887,31.892 90.4035477,29.5693333 C90.7583149,27.872 89.0731707,27.2466667 87.654102,27.2466667 C85.9689579,27.2466667 84.195122,27.872 84.0177384,29.0333333 C82.2439024,43.0586667 79.5831486,60.032 69.2062084,60.032 C61.578714,60.032 59.0953437,51.8133333 59.0953437,40.6466667 C59.0953437,26.6213333 66.2793792,6.78933333 80.0266075,6.78933333 C83.3968958,6.78933333 84.9933481,9.29066667 84.9933481,11.7026667 C84.9933481,18.4026667 77.1884701,22.6013333 70.8026608,22.6013333 C68.2305987,22.6013333 68.0532151,21.708 67.4323725,21.708 C66.8115299,21.708 66.4567627,23.316 66.4567627,24.5666667 C66.4567627,27.5146667 68.2305987,29.0333333 70.3592018,29.0333333 C70.3592018,29.0333333 68.2305987,29.0333333 70.3592018,29.0333333 Z M158.400295,95 C156.923191,95 156,92.8064516 156,89.9731183 C156,84.4892473 158.031019,81.016129 160.985229,78 L160.985229,87.7795699 C160.985229,89.516129 161.354505,95 158.400295,95 Z M225.862069,61.7333333 C224.461538,59.3333333 223.236074,56.9333333 222.01061,54.5333333 C224.198939,49.6444444 225.599469,43.2444444 225.599469,34.9777778 C225.599469,30.3555556 226.387268,30.8 226.387268,29.9111111 C226.387268,29.2888889 225.249337,28.9333333 224.198939,28.9333333 C221.923077,28.9333333 219.559682,29.4666667 218.859416,31.2444444 C218.509284,32.0444444 219.209549,33.7333333 219.209549,34.9777778 C219.209549,39.3333333 218.859416,43.1555556 218.159151,46.5333333 C210.281167,29.5555556 205.992042,14.8888889 205.37931,8.66666667 C208.530504,8.84444444 215.270557,8.93333333 217.108753,8.93333333 C219.297082,8.93333333 220.697613,6.17777778 220.697613,4.13333333 C220.697613,2.97777778 220.172414,2 219.034483,2 C218.771883,2 218.421751,2.08888889 218.071618,2.17777778 L201.702918,2.17777778 C199.514589,2.17777778 198.289125,3.6 198.289125,5.64444444 C198.289125,6.26666667 199.164456,13.2888889 202.665782,24.7555556 C200.302387,28.2222222 194,38.4444444 194,49.4666667 C194,58.7111111 198.639257,66 207.655172,66 C211.068966,66 214.745358,64.3111111 217.809019,61.0222222 C218.421751,62.2666667 219.122016,63.5111111 219.822281,64.7555556 C220.34748,65.6444444 221.135279,66 222.01061,66 C224.198939,66 227,63.7777778 227,62.5333333 C227,62.0888889 226.649867,61.8222222 225.862069,61.7333333 C225.862069,61.7333333 226.649867,61.8222222 225.862069,61.7333333 Z M208.822086,60 C204.03681,60 201,55.05 201,49.83 C201,42.63 203.576687,36.96 205.969325,33 C208.453988,39.66 211.674847,47.31 216,55.68 C214.067485,58.47 211.674847,60 208.822086,60 Z M269.041943,26.3912467 C266.481236,26.3912467 266.304636,25.5026525 265.686534,25.5026525 C265.068433,25.5026525 264.715232,27.102122 264.715232,28.3461538 C264.715232,31.2785146 266.481236,32.6114058 268.600442,32.6114058 C278.401766,32.6114058 292,22.6591512 292,11.729443 C292,3.99867374 287.143488,0 280.785872,0 C263.214128,0 252,21.5039788 252,38.831565 C252,55.9814324 259.593819,67 272.220751,67 C282.905077,67 289.350993,59.8912467 289.615894,59.6246684 C291.735099,57.4920424 287.408389,51.1830239 285.112583,55.0039788 C284.935982,55.0928382 280.344371,60.3355438 272.838852,60.3355438 C262.684327,60.3355438 259.064018,49.8501326 259.064018,38.831565 C259.064018,24.3474801 267.98234,6.4867374 279.637969,6.4867374 C283.699779,6.4867374 285.024283,9.41909814 285.024283,11.4628647 C285.024283,19.0159151 275.576159,26.3912467 269.041943,26.3912467 Z M360.454545,21 C363.636364,21 366,18.4754098 366,15.5 C366,12.3442623 363.636364,10 360.454545,10 C357.454545,10 355,12.3442623 355,15.5 C355,18.4754098 357.454545,21 360.454545,21 C360.454545,21 357.454545,21 360.454545,21 Z" id="Amy-&amp;-Chris" fill="#D5091F" sketch:type="MSShapeGroup"></path>
                <path d="M26.9948718,107 C27.6649606,107 28,107.33333 28,108 L28,156 C28,156.66667 27.6649606,157 26.9948718,157 L20.1025641,157 C19.4324753,157 19.0974359,156.66667 19.0974359,156 L19.0974359,133.428571 L14.3589744,151.857143 C14.2632474,152.095239 14.1435905,152.214286 14,152.214286 C13.8564095,152.214286 13.7367526,152.095239 13.6410256,151.857143 L8.9025641,133.428571 L8.9025641,156 C8.9025641,156.66667 8.56752472,157 7.8974359,157 L1.00512821,157 C0.335039385,157 0,156.66667 0,156 L0,108 C0,107.33333 0.335039385,107 1.00512821,107 L7.10769231,107 C7.39487323,107 7.64615277,107.107142 7.86153846,107.321429 C8.07692415,107.535715 8.23247815,107.761904 8.32820513,108 L14,133.571429 L19.6717949,108 C19.7675218,107.761904 19.9230758,107.535715 20.1384615,107.321429 C20.3538472,107.107142 20.6051268,107 20.8923077,107 C20.8923077,107 20.6051268,107 20.8923077,107 L26.9948718,107 Z M55.9817167,156.973333 C56.0792265,157.657781 55.7867016,158 55.1041333,158 L48.4491255,158 C47.8153121,158 47.449656,157.657781 47.3521462,156.973333 L46.7670906,149.786667 L42.2329094,149.786667 L41.6478538,156.973333 C41.550344,157.657781 41.1846879,158 40.5508745,158 L33.8958667,158 C33.2132984,158 32.9207735,157.657781 33.0182833,156.973333 L38.5031798,115.026667 C38.6006896,114.342219 38.9907227,114 39.6732911,114 L49.3267089,114 C50.0092773,114 50.3993104,114.342219 50.4968202,115.026667 C50.4968202,115.026667 50.3993104,114.342219 50.4968202,115.026667 L55.9817167,156.973333 Z M46,141 L44.3478261,125 L43.6521739,125 L42,141 L46,141 Z M68.2881866,156.973333 C68.2881866,157.657781 67.9339941,158 67.2255985,158 L60.9209096,158 C60.3069668,158 60,157.657781 60,156.973333 L60,115.026667 C60,114.342219 60.3305796,114 60.9917488,114 L71.617629,114 C72.8455147,114 74.0025434,114.244442 75.0887499,114.733333 C76.1749564,115.222225 77.1194696,115.882218 77.9223179,116.713333 C78.7251662,117.544449 79.3627127,118.522217 79.8349764,119.646667 C80.3072401,120.771117 80.5433684,121.968883 80.5433684,123.24 L80.5433684,132.26 C80.5433684,134.068898 80.0238861,135.694437 78.984906,137.136667 C77.9459258,138.578896 76.6944458,139.691107 75.2304283,140.473333 L81.9601524,156.973333 C82.1018315,157.657781 81.8657032,158 81.2517604,158 L74.8053931,158 C74.5220349,158 74.2504873,157.902223 73.9907423,157.706667 C73.7309972,157.51111 73.553901,157.266668 73.4594483,156.973333 L68.2881866,143.406667 L68.2881866,156.973333 Z M68,134 L70.2857143,134 C70.7619071,134 71.166665,133.826089 71.5,133.478261 C71.833335,133.130433 72,132.708077 72,132.21118 L72,123.78882 C72,123.291923 71.833335,122.869567 71.5,122.521739 C71.166665,122.173911 70.7619071,122 70.2857143,122 L68,122 L68,134 Z M95.2881866,156.973333 C95.2881866,157.657781 94.9339941,158 94.2255985,158 L87.9209096,158 C87.3069668,158 87,157.657781 87,156.973333 L87,115.026667 C87,114.342219 87.3305796,114 87.9917488,114 L98.617629,114 C99.8455147,114 101.002543,114.244442 102.08875,114.733333 C103.174956,115.222225 104.11947,115.882218 104.922318,116.713333 C105.725166,117.544449 106.362713,118.522217 106.834976,119.646667 C107.30724,120.771117 107.543368,121.968883 107.543368,123.24 L107.543368,132.26 C107.543368,134.068898 107.023886,135.694437 105.984906,137.136667 C104.945926,138.578896 103.694446,139.691107 102.230428,140.473333 L108.960152,156.973333 C109.101832,157.657781 108.865703,158 108.25176,158 L101.805393,158 C101.522035,158 101.250487,157.902223 100.990742,157.706667 C100.730997,157.51111 100.553901,157.266668 100.459448,156.973333 L95.2881866,143.406667 L95.2881866,156.973333 Z M95,134 L97.2857143,134 C97.7619071,134 98.166665,133.826089 98.5,133.478261 C98.833335,133.130433 99,132.708077 99,132.21118 L99,123.78882 C99,123.291923 98.833335,122.869567 98.5,122.521739 C98.166665,122.173911 97.7619071,122 97.2857143,122 L95,122 L95,134 Z M122,156.973333 C122,157.657781 121.680915,158 121.042735,158 L114.957265,158 C114.319085,158 114,157.657781 114,156.973333 L114,115.026667 C114,114.342219 114.319085,114 114.957265,114 L121.042735,114 C121.680915,114 122,114.342219 122,115.026667 C122,115.026667 122,114.342219 122,115.026667 L122,156.973333 Z M145.028571,149.42 C145.676194,149.42 146,149.762219 146,150.446667 L146,156.973333 C146,157.657781 145.676194,158 145.028571,158 L129.971429,158 C129.323806,158 129,157.657781 129,156.973333 L129,115.026667 C129,114.342219 129.323806,114 129.971429,114 L145.028571,114 C145.676194,114 146,114.342219 146,115.026667 L146,121.553333 C146,122.237781 145.676194,122.58 145.028571,122.58 L137.118367,122.58 L137.118367,130.94 L143.987755,130.94 C144.635377,130.94 144.959184,131.282219 144.959184,131.966667 L144.959184,138.493333 C144.959184,139.177781 144.635377,139.52 143.987755,139.52 L137.118367,139.52 L137.118367,149.42 L145.028571,149.42 Z M163.875862,114 C165.131041,114 166.313788,114.244442 167.424138,114.733333 C168.534488,115.222225 169.499996,115.882218 170.32069,116.713333 C171.141383,117.544449 171.793101,118.522217 172.275862,119.646667 C172.758623,120.771117 173,121.968883 173,123.24 L173,148.76 C173,150.031117 172.758623,151.228883 172.275862,152.353333 C171.793101,153.477783 171.141383,154.455551 170.32069,155.286667 C169.499996,156.117782 168.534488,156.777775 167.424138,157.266667 C166.313788,157.755558 165.131041,158 163.875862,158 L153.013793,158 C152.337928,158 152,157.657781 152,156.973333 L152,115.026667 C152,114.342219 152.337928,114 153.013793,114 C153.013793,114 152.337928,114 153.013793,114 L163.875862,114 Z M165,123.740933 C165,123.257338 164.833335,122.846288 164.5,122.507772 C164.166665,122.169256 163.761907,122 163.285714,122 L161,122 L161,150 L163.285714,150 C163.761907,150 164.166665,149.830744 164.5,149.492228 C164.833335,149.153712 165,148.742662 165,148.259067 C165,148.259067 165,148.742662 165,148.259067 L165,123.740933 Z M196,156 C196,156.66667 195.680915,157 195.042735,157 L188.957265,157 C188.319085,157 188,156.66667 188,156 L188,108 C188,107.33333 188.319085,107 188.957265,107 L195.042735,107 C195.680915,107 196,107.33333 196,108 C196,108 196,107.33333 196,108 L196,156 Z M224.99375,114 C225.664587,114 226,114.342219 226,115.026667 L226,156.973333 C226,157.657781 225.664587,158 224.99375,158 L220.39375,158 C220.106249,158 219.83073,157.902223 219.567187,157.706667 C219.303645,157.51111 219.123959,157.291112 219.028125,157.046667 L211.409375,137.906667 L211.409375,156.973333 C211.409375,157.657781 211.073962,158 210.403125,158 L204.00625,158 C203.335413,158 203,157.657781 203,156.973333 L203,115.026667 C203,114.342219 203.335413,114 204.00625,114 L208.75,114 C209.037501,114 209.31302,114.097777 209.576562,114.293333 C209.840105,114.48889 210.019791,114.708888 210.115625,114.953333 L217.590625,136.293333 L217.590625,115.026667 C217.590625,114.342219 217.926038,114 218.596875,114 C218.596875,114 217.926038,114 218.596875,114 L224.99375,114 Z M263.99375,107 C264.664587,107 265,107.33333 265,108 L265,156 C265,156.66667 264.664587,157 263.99375,157 L259.39375,157 C259.106249,157 258.83073,156.904763 258.567187,156.714286 C258.303645,156.523809 258.123959,156.309525 258.028125,156.071429 L250.409375,132.428571 L250.409375,156 C250.409375,156.66667 250.073962,157 249.403125,157 L243.00625,157 C242.335413,157 242,156.66667 242,156 L242,108 C242,107.33333 242.335413,107 243.00625,107 L247.75,107 C248.037501,107 248.31302,107.095237 248.576562,107.285714 C248.840105,107.476191 249.019791,107.690475 249.115625,107.928571 L256.590625,130.857143 L256.590625,108 C256.590625,107.33333 256.926038,107 257.596875,107 C257.596875,107 256.926038,107 257.596875,107 L263.99375,107 Z M287.028571,149.42 C287.676194,149.42 288,149.762219 288,150.446667 L288,156.973333 C288,157.657781 287.676194,158 287.028571,158 L271.971429,158 C271.323806,158 271,157.657781 271,156.973333 L271,115.026667 C271,114.342219 271.323806,114 271.971429,114 L287.028571,114 C287.676194,114 288,114.342219 288,115.026667 L288,121.553333 C288,122.237781 287.676194,122.58 287.028571,122.58 L279.118367,122.58 L279.118367,130.94 L285.987755,130.94 C286.635377,130.94 286.959184,131.282219 286.959184,131.966667 L286.959184,138.493333 C286.959184,139.177781 286.635377,139.52 285.987755,139.52 L279.118367,139.52 L279.118367,149.42 L287.028571,149.42 Z M328.140758,114 C328.795422,114 329.075988,114.342219 328.982464,115.026667 L321.407109,156.973333 C321.313585,157.657781 320.939498,158 320.284834,158 L314.112322,158 C313.457659,158 313.083571,157.657781 312.990047,156.973333 L310.535071,141.646667 L310.464929,141.646667 L308.009953,156.973333 C307.916429,157.657781 307.542341,158 306.887678,158 L300.715166,158 C300.060502,158 299.686415,157.657781 299.592891,156.973333 L292.017536,115.026667 C291.924012,114.342219 292.204578,114 292.859242,114 L300.434597,114 C301.042499,114 301.393207,114.342219 301.48673,115.026667 L303.941706,139.813333 L304.222275,139.813333 L306.887678,115.026667 C306.981201,114.342219 307.331909,114 307.93981,114 L313.06019,114 C313.668091,114 314.018799,114.342219 314.112322,115.026667 L316.777725,139.813333 L317.058294,139.813333 L319.51327,115.026667 C319.606793,114.342219 319.957501,114 320.565403,114 C320.565403,114 319.957501,114 320.565403,114 L328.140758,114 Z M365.227688,107 C365.513731,107 365.72826,107.107142 365.871281,107.321429 C366.014302,107.535715 366.038139,107.761904 365.942791,108 L357.719107,137.571429 L357.719107,156 C357.719107,156.66667 357.385396,157 356.717963,157 L350.282037,157 C349.614604,157 349.280893,156.66667 349.280893,156 L349.280893,137.571429 L341.057209,108 C340.961861,107.761904 340.985698,107.535715 341.128719,107.321429 C341.27174,107.107142 341.486269,107 341.772312,107 L349.352403,107 C350.019836,107 350.40122,107.33333 350.496568,108 L353.356979,126 L353.643021,126 L356.503432,108 C356.59878,107.33333 356.980164,107 357.647597,107 C357.647597,107 356.980164,107 357.647597,107 L365.227688,107 Z M390,148.765472 C390,150.035837 389.758623,151.232893 389.275862,152.356678 C388.793101,153.480462 388.141383,154.457651 387.32069,155.288274 C386.499996,156.118897 385.534488,156.778499 384.424138,157.267101 C383.313788,157.755703 382.131041,158 380.875862,158 L378.124138,158 C376.868959,158 375.686212,157.755703 374.575862,157.267101 C373.465512,156.778499 372.500004,156.118897 371.67931,155.288274 C370.858617,154.457651 370.206899,153.480462 369.724138,152.356678 C369.241377,151.232893 369,150.035837 369,148.765472 L369,122.234528 C369,120.964163 369.241377,119.767107 369.724138,118.643322 C370.206899,117.519538 370.858617,116.542349 371.67931,115.711726 C372.500004,114.881103 373.465512,114.221501 374.575862,113.732899 C375.686212,113.244297 376.868959,113 378.124138,113 L380.875862,113 C382.131041,113 383.313788,113.244297 384.424138,113.732899 C385.534488,114.221501 386.499996,114.881103 387.32069,115.711726 C388.141383,116.542349 388.793101,117.519538 389.275862,118.643322 C389.758623,119.767107 390,120.964163 390,122.234528 C390,122.234528 390,120.964163 390,122.234528 L390,148.765472 Z M382,123.74 C382,123.256664 381.833335,122.845835 381.5,122.5075 C381.166665,122.169165 380.761907,122 380.285714,122 L379.714286,122 C379.238093,122 378.833335,122.169165 378.5,122.5075 C378.166665,122.845835 378,123.256664 378,123.74 L378,149.26 C378,149.743336 378.166665,150.154165 378.5,150.4925 C378.833335,150.830835 379.238093,151 379.714286,151 L380.285714,151 C380.761907,151 381.166665,150.830835 381.5,150.4925 C381.833335,150.154165 382,149.743336 382,149.26 C382,149.26 382,149.743336 382,149.26 L382,123.74 Z M403.288187,156.973333 C403.288187,157.657781 402.933994,158 402.225599,158 L395.92091,158 C395.306967,158 395,157.657781 395,156.973333 L395,115.026667 C395,114.342219 395.33058,114 395.991749,114 L406.617629,114 C407.845515,114 409.002543,114.244442 410.08875,114.733333 C411.174956,115.222225 412.11947,115.882218 412.922318,116.713333 C413.725166,117.544449 414.362713,118.522217 414.834976,119.646667 C415.30724,120.771117 415.543368,121.968883 415.543368,123.24 L415.543368,132.26 C415.543368,134.068898 415.023886,135.694437 413.984906,137.136667 C412.945926,138.578896 411.694446,139.691107 410.230428,140.473333 L416.960152,156.973333 C417.101832,157.657781 416.865703,158 416.25176,158 L409.805393,158 C409.522035,158 409.250487,157.902223 408.990742,157.706667 C408.730997,157.51111 408.553901,157.266668 408.459448,156.973333 L403.288187,143.406667 L403.288187,156.973333 Z M404,134 L406.285714,134 C406.761907,134 407.166665,133.826089 407.5,133.478261 C407.833335,133.130433 408,132.708077 408,132.21118 L408,123.78882 C408,123.291923 407.833335,122.869567 407.5,122.521739 C407.166665,122.173911 406.761907,122 406.285714,122 L404,122 L404,134 Z M445.35905,114 C445.643918,114 445.833827,114.109999 445.928783,114.33 C446.023739,114.550001 446.023739,114.782221 445.928783,115.026667 L436.243323,133.726667 L445.78635,156.973333 C445.881306,157.217779 445.857567,157.449999 445.715133,157.67 C445.572699,157.890001 445.359052,158 445.074184,158 L438.023739,158 C437.738871,158 437.477746,157.914445 437.240356,157.743333 C437.002966,157.572221 436.836796,157.364446 436.74184,157.12 L431.543027,144.946667 L430.332344,147.293333 L430.332344,156.973333 C430.332344,157.657781 430.000003,158 429.335311,158 L422.997033,158 C422.332341,158 422,157.657781 422,156.973333 L422,115.026667 C422,114.342219 422.332341,114 422.997033,114 L429.335311,114 C430.000003,114 430.332344,114.342219 430.332344,115.026667 L430.332344,127.86 L436.884273,114.88 C437.121663,114.29333 437.572697,114 438.237388,114 C438.237388,114 437.572697,114 438.237388,114 L445.35905,114 Z" id="Married-In-New-York" fill="#222222" sketch:type="MSShapeGroup"></path>
                <path d="M188.706595,82 L190.269179,82 L194,91 L191.868102,91 L191.129206,89.0932203 L187.798116,89.0932203 L187.083445,91 L185,91 L188.706595,82 Z M189.99422,85 L189,88 L191,88 L189.99422,85 Z M195,82 L198.376761,82 C198.820425,82 199.241489,82.0444911 199.639965,82.1334746 C200.038441,82.2224581 200.387616,82.3707617 200.6875,82.5783898 C200.987384,82.786018 201.225645,83.0656762 201.402289,83.4173729 C201.578933,83.7690696 201.667254,84.2076245 201.667254,84.7330508 C201.667254,85.3686472 201.507044,85.9088961 201.18662,86.3538136 C200.866196,86.798731 200.39789,87.0805079 199.78169,87.1991525 L202,91 L199.695423,91 L197.871479,87.4025424 L196.922535,87.4025424 L196.922535,91 L195,91 L195,82 Z M197,86 L198.237668,86 C198.42601,86 198.625559,85.9937889 198.836323,85.9813665 C199.047086,85.968944 199.237667,85.9316773 199.408072,85.8695652 C199.578476,85.8074531 199.71973,85.7101456 199.831839,85.5776398 C199.943947,85.4451339 200,85.2588004 200,85.0186335 C200,84.7950299 199.950673,84.6169779 199.852018,84.484472 C199.753363,84.3519662 199.627803,84.250518 199.475336,84.1801242 C199.322869,84.1097305 199.147983,84.0621119 198.950673,84.0372671 C198.753362,84.0124222 198.560539,84 198.372197,84 L197,84 L197,86 Z M203,82 L208.783567,82 L208.783567,83.8305085 L204.875752,83.8305085 L204.875752,85.5084746 L208.567134,85.5084746 L208.567134,87.3389831 L204.875752,87.3389831 L204.875752,89.1694915 L209,89.1694915 L209,91 L203,91 L203,82 Z M222,90.1774194 C221.458024,90.4677434 220.892492,90.6774187 220.303387,90.8064516 C219.714283,90.9354845 219.113405,91 218.500736,91 C217.848794,91 217.247916,90.8951623 216.698085,90.6854839 C216.148254,90.4758054 215.673051,90.1754052 215.272459,89.7842742 C214.871868,89.3931432 214.559648,88.9193576 214.335788,88.3629032 C214.111928,87.8064488 214,87.1854873 214,86.5 C214,85.8145127 214.111928,85.1935512 214.335788,84.6370968 C214.559648,84.0806424 214.871868,83.6068568 215.272459,83.2157258 C215.673051,82.8245948 216.148254,82.5241946 216.698085,82.3145161 C217.247916,82.1048377 217.848794,82 218.500736,82 C219.168388,82 219.783011,82.0826605 220.344624,82.2479839 C220.906237,82.4133073 221.399114,82.6975786 221.82327,83.1008065 L220.527246,84.5524194 C220.275895,84.286289 219.993129,84.0846781 219.67894,83.9475806 C219.364751,83.8104832 218.97202,83.7419355 218.500736,83.7419355 C218.108,83.7419355 217.752579,83.8104832 217.434462,83.9475806 C217.116346,84.0846781 216.843398,84.2762084 216.615611,84.5221774 C216.387824,84.7681464 216.213059,85.0604822 216.091311,85.3991935 C215.969562,85.7379049 215.908689,86.1048367 215.908689,86.5 C215.908689,86.9032278 215.969562,87.2721757 216.091311,87.6068548 C216.213059,87.9415339 216.387824,88.2318536 216.615611,88.4778226 C216.843398,88.7237916 217.116346,88.9153219 217.434462,89.0524194 C217.752579,89.1895168 218.108,89.2580645 218.500736,89.2580645 C218.901327,89.2580645 219.24693,89.211694 219.537555,89.1189516 C219.82818,89.0262092 220.059891,88.9314521 220.232695,88.8346774 L220.232695,87.4435484 L218.736377,87.4435484 L218.736377,85.7016129 L222,85.7016129 L222,90.1774194 Z M225,82 L230.783567,82 L230.783567,83.8305085 L226.875752,83.8305085 L226.875752,85.5084746 L230.567134,85.5084746 L230.567134,87.3389831 L226.875752,87.3389831 L226.875752,89.1694915 L231,89.1694915 L231,91 L225,91 L225,82 Z M234.525,83.7542373 L232,83.7542373 L232,82 L239,82 L239,83.7542373 L236.475,83.7542373 L236.475,91 L234.525,91 L234.525,83.7542373 Z M241.525,83.7542373 L239,83.7542373 L239,82 L246,82 L246,83.7542373 L243.475,83.7542373 L243.475,91 L241.525,91 L241.525,83.7542373 Z M247,82 L249,82 L249,91 L247,91 L247,82 Z M251,82 L253.527571,82 L257.116244,88.2542373 L257.140089,88.2542373 L257.140089,82 L259,82 L259,91 L256.567809,91 L252.883756,84.5932203 L252.859911,84.5932203 L252.859911,91 L251,91 L251,82 Z M269,90.1774194 C268.458024,90.4677434 267.892492,90.6774187 267.303387,90.8064516 C266.714283,90.9354845 266.113405,91 265.500736,91 C264.848794,91 264.247916,90.8951623 263.698085,90.6854839 C263.148254,90.4758054 262.673051,90.1754052 262.272459,89.7842742 C261.871868,89.3931432 261.559648,88.9193576 261.335788,88.3629032 C261.111928,87.8064488 261,87.1854873 261,86.5 C261,85.8145127 261.111928,85.1935512 261.335788,84.6370968 C261.559648,84.0806424 261.871868,83.6068568 262.272459,83.2157258 C262.673051,82.8245948 263.148254,82.5241946 263.698085,82.3145161 C264.247916,82.1048377 264.848794,82 265.500736,82 C266.168388,82 266.783011,82.0826605 267.344624,82.2479839 C267.906237,82.4133073 268.399114,82.6975786 268.82327,83.1008065 L267.527246,84.5524194 C267.275895,84.286289 266.993129,84.0846781 266.67894,83.9475806 C266.364751,83.8104832 265.97202,83.7419355 265.500736,83.7419355 C265.108,83.7419355 264.752579,83.8104832 264.434462,83.9475806 C264.116346,84.0846781 263.843398,84.2762084 263.615611,84.5221774 C263.387824,84.7681464 263.213059,85.0604822 263.091311,85.3991935 C262.969562,85.7379049 262.908689,86.1048367 262.908689,86.5 C262.908689,86.9032278 262.969562,87.2721757 263.091311,87.6068548 C263.213059,87.9415339 263.387824,88.2318536 263.615611,88.4778226 C263.843398,88.7237916 264.116346,88.9153219 264.434462,89.0524194 C264.752579,89.1895168 265.108,89.2580645 265.500736,89.2580645 C265.901327,89.2580645 266.24693,89.211694 266.537555,89.1189516 C266.82818,89.0262092 267.059891,88.9314521 267.232695,88.8346774 L267.232695,87.4435484 L265.736377,87.4435484 L265.736377,85.7016129 L269,85.7016129 L269,90.1774194 Z" id="ARE-GETTING-copy" fill="#8C8C8C" sketch:type="MSShapeGroup"></path>
            </g>
        </g>
    </g>
</svg>