<?xml version="1.0" encoding="UTF-8" standalone="no"?>
<svg width="200px" height="100px" viewBox="0 0 200 100" version="1.1" xmlns="http://www.w3.org/2000/svg" xmlns:xlink="http://www.w3.org/1999/xlink" xmlns:sketch="http://www.bohemiancoding.com/sketch/ns">
    <title>Artboard 1</title>
    <description>Created with Sketch (http://www.bohemiancoding.com/sketch)</description>
    <defs></defs>
    <g id="Page 1" fill="#D8D8D8" fill-rule="evenodd">
        <g id="Artboard 1">
            <path d="M0,0 L0,100 L200,100 L200,0 L0,0 Z M0,0" id="Rectangle 1" fill="#0191CD"></path>
            <path d="M51.5859375,75.75 L28.7734375,75.75 L28.7734375,27.5 L41.8046875,27.5 L41.8046875,64.15625 L51.5859375,64.15625 Z M90.7421875,51.78125 C90.7421875,59.1354534 89.0651209,65.1145603 85.7109375,69.71875 C82.3775875,74.3021063 78.0338809,76.59375 72.6796875,76.59375 C67.9296638,76.59375 63.8567878,74.8333509 60.4609375,71.3125 C56.1900828,66.8541444 54.0546875,60.1667112 54.0546875,51.25 C54.0546875,42.7082906 56.2838319,36.1771059 60.7421875,31.65625 C64.0547041,28.3020666 67.9817481,26.625 72.5234375,26.625 C78.0859653,26.625 82.5130044,28.8958106 85.8046875,33.4375 C89.0963706,37.9791894 90.7421875,44.0937116 90.7421875,51.78125 Z M77.2109375,51.875 C77.2109375,43.1457897 75.6692863,38.78125 72.5859375,38.78125 C71.0442631,38.78125 69.8151088,39.9270719 68.8984375,42.21875 C68.0025997,44.3437606 67.5546875,47.4687294 67.5546875,51.59375 C67.5546875,55.6562703 67.9765583,58.8072805 68.8203125,61.046875 C69.6640667,63.2864695 70.83593,64.40625 72.3359375,64.40625 C73.8776119,64.40625 75.0651,63.3020944 75.8984375,61.09375 C76.7734419,58.8854056 77.2109375,55.8125197 77.2109375,51.875 Z M172.742188,51.78125 C172.742188,59.1354534 171.065121,65.1145603 167.710938,69.71875 C164.377588,74.3021063 160.033881,76.59375 154.679688,76.59375 C149.929664,76.59375 145.856788,74.8333509 142.460938,71.3125 C138.190083,66.8541444 136.054688,60.1667112 136.054688,51.25 C136.054688,42.7082906 138.283832,36.1771059 142.742188,31.65625 C146.054704,28.3020666 149.981748,26.625 154.523438,26.625 C160.085965,26.625 164.513004,28.8958106 167.804688,33.4375 C171.096371,37.9791894 172.742188,44.0937116 172.742188,51.78125 Z M159.210938,51.875 C159.210938,43.1457897 157.669286,38.78125 154.585938,38.78125 C153.044263,38.78125 151.815109,39.9270719 150.898438,42.21875 C150.0026,44.3437606 149.554688,47.4687294 149.554688,51.59375 C149.554688,55.6562703 149.976558,58.8072805 150.820312,61.046875 C151.664067,63.2864695 152.83593,64.40625 154.335938,64.40625 C155.877612,64.40625 157.0651,63.3020944 157.898438,61.09375 C158.773442,58.8854056 159.210938,55.8125197 159.210938,51.875 Z M113.085938,47.84375 L131.273438,47.84375 L131.273438,49.84375 C131.273438,59.1354631 129.888035,65.8228962 127.117188,69.90625 C124.096339,74.3646056 119.627634,76.59375 113.710938,76.59375 C107.898408,76.59375 103.335954,74.4062719 100.023438,70.03125 C96.7317544,65.6145613 95.0859375,59.5521219 95.0859375,51.84375 C95.0859375,44.0312109 96.7421709,37.8750225 100.054688,33.375 C103.367204,28.8749775 107.898409,26.625 113.648438,26.625 C121.273476,26.625 126.80467,30.6041269 130.242188,38.5625 L117.617188,43.1875 C117.429687,41.6666591 116.997399,40.4635461 116.320312,39.578125 C115.643226,38.6927039 114.794276,38.25 113.773438,38.25 C110.190086,38.25 108.398438,43.1770341 108.398438,53.03125 C108.398438,57.2187709 108.794267,60.2604072 109.585938,62.15625 C110.377608,64.0520928 111.638012,65 113.367188,65 C114.054691,65 114.679685,64.833335 115.242188,64.5 C115.80469,64.166665 116.278644,63.6979197 116.664062,63.09375 C117.049481,62.4895803 117.351561,61.7552127 117.570312,60.890625 C117.789064,60.0260373 117.898438,59.0625053 117.898438,58 L113.085938,58 Z M113.085938,47.84375" id="LOGO" fill="#FFFFFF"></path>
        </g>
    </g>
</svg>