<?xml version="1.0" encoding="UTF-8" standalone="no"?>
<svg width="25px" height="74px" viewBox="0 0 25 74" version="1.1" xmlns="http://www.w3.org/2000/svg" xmlns:xlink="http://www.w3.org/1999/xlink" xmlns:sketch="http://www.bohemiancoding.com/sketch/ns">
    <title>Screen Shot 2013-10-20 at 15.02</title>
    <description>Created with Sketch (http://www.bohemiancoding.com/sketch)</description>
    <defs></defs>
    <g id="Page-1" stroke="none" stroke-width="1" fill="none" fill-rule="evenodd" sketch:type="MSPage">
        <path d="M12.5,27 C18.8512749,27 24,21.8512749 24,15.5 C24,9.14872506 18.8512749,4 12.5,4 C6.14872506,4 1,9.14872506 1,15.5 C1,21.8512749 6.14872506,27 12.5,27 Z" id="Oval-1" stroke="#222222" stroke-width="2" sketch:type="MSShapeGroup"></path>
        <path d="M12.5,73 C18.8512749,73 24,67.8512749 24,61.5 C24,55.1487251 18.8512749,50 12.5,50 C6.14872506,50 1,55.1487251 1,61.5 C1,67.8512749 6.14872506,73 12.5,73 Z" id="Oval-1-copy" stroke="#CFCFCF" stroke-width="2" sketch:type="MSShapeGroup"></path>
        <path d="M13.9861882,14.8442161 C13.9861882,14.4934012 13.8664403,14.1610503 13.7167553,13.8286993 C11.890599,14.7518964 6.08282284,17.1032801 6.0828233,19.8110162 C6.08282386,22.1677533 12.9084566,16.4136511 12.9084566,16.4136511 C13.3575115,15.9520525 13.9861882,15.3981343 13.9861882,14.8442161 Z" id="Path" fill="#000000" sketch:type="MSShapeGroup" transform="translate(10.034506, 17.103280) rotate(-85.000000) translate(-10.034506, -17.103280) "></path>
        <path d="M23,1.7578833 C23,1.31430404 22.9066149,0.894071059 22.7898835,0.473838077 C21.3657606,1.64115192 19.287942,3.92908704 16.8365829,8.03803175 C15.0155733,11.0730477 11.3969004,16.9796558 11.3969004,18.9874356 C11.3969004,19.8279015 11.6904465,20.9890658 12.577605,20.9890658 C12.834414,20.9890658 13.2879489,20.2714808 13.3579877,20.0613643 C14.3385313,17.1197334 14.9455345,15.485494 17.5369712,11.2598179 L22.159534,3.74231682 C22.5097282,3.15865991 23,2.4582716 23,1.7578833 Z" id="Path" fill="#000000" sketch:type="MSShapeGroup"></path>
    </g>
</svg>