<?xml version="1.0" encoding="UTF-8" standalone="no"?>
<svg width="625px" height="105px" viewBox="0 0 625 105" version="1.1" xmlns="http://www.w3.org/2000/svg" xmlns:xlink="http://www.w3.org/1999/xlink" xmlns:sketch="http://www.bohemiancoding.com/sketch/ns">
    <title>Artboard 1</title>
    <description>Created with Sketch (http://www.bohemiancoding.com/sketch)</description>
    <defs></defs>
    <g id="Page-1" stroke="none" stroke-width="1" fill="none" fill-rule="evenodd" sketch:type="MSPage">
        <g id="Artboard-1" sketch:type="MSArtboardGroup" transform="translate(-28.000000, -57.000000)">
            <rect id="Rectangle-1" fill="#FFFFFF" sketch:type="MSShapeGroup" x="28" y="57" width="625" height="105"></rect>
            <path d="M653,153.736185 L639.789384,153.736185 C639.657901,152.388511 639.564946,151.443503 639.442637,150.189337 L630.408268,150.189337 C630.924413,146.286578 627.6557,147.880292 625.848581,146.968597 C625.136742,140.410815 620.905455,134.090893 624.327666,127.336747 C623.402397,126.707326 622.12977,126.304076 621.984222,125.665305 C621.221013,122.324173 620.585616,118.938626 620.225416,115.537884 C620.014432,113.543841 620.257216,111.472071 620.562989,109.472769 C620.794765,107.955029 621.398973,106.480537 621.929795,105.017148 C622.360323,103.832528 622.926614,102.694077 623.432363,101.535756 C622.142613,101.172246 620.852862,100.808152 619.151541,100.328928 C618.41157,98.0976105 615.731164,95.6588242 617.407412,92.246978 C617.471624,92.1154834 615.948263,91.0366434 615.046233,90.7847582 C614.413894,90.6082632 613.580357,91.0898256 612.919887,91.2563854 C610.710372,87.4857051 614.050636,83.195475 611.25954,79.6538875 C610.667564,80.9945479 610.315925,82.3270263 610.296355,83.6635958 C610.275563,85.1053609 610.712818,86.5535546 610.690802,87.9959041 C610.633929,91.6549602 610.284124,95.3146006 610.337329,98.9701501 C610.37341,101.449261 611.238748,103.938892 611.112769,106.395211 C610.922578,110.106865 610.378914,113.828454 609.632216,117.479913 C609.020059,120.476236 607.912549,123.381974 606.969545,126.311674 C606.869863,126.62317 606.440558,126.889665 606.101761,127.070836 C604.635886,127.85805 604.294031,128.720654 605.479207,130.094042 C605.917686,130.601904 606.013699,131.569119 605.912182,132.281528 C605.185054,137.377674 604.368028,142.461547 603.616438,147.302301 C601.860078,147.763993 599.876223,147.823019 599.682363,148.416206 C598.805406,151.095773 596.468077,150.434209 594.692148,150.656874 C592.404966,150.942655 590.38136,151.139605 590.55137,154.262747 L570.28657,154.262747 L570.28657,141.599526 C568.2966,141.016859 566.712084,140.55283 565.173434,140.102826 C560.930528,142.369793 555.791096,139.949708 551.148239,141.25355 C550.792319,143.812142 550.448019,146.284825 550.08843,148.870885 C549.02067,149.137965 547.882583,149.421993 547.21661,149.588553 C546.627691,146.805543 546.239359,144.055261 545.370352,141.451668 C545.133072,140.741013 543.471502,140.180554 542.426981,140.11919 C541.897994,140.088215 541.074242,141.241861 540.755015,142.002777 C539.849927,144.163379 539.135641,146.397618 538.346135,148.603805 C537.944961,145.89677 538.310665,143.204345 537.80614,140.670298 C537.510763,139.189961 535.978229,136.986696 534.735568,136.808448 C531.237524,136.308184 527.601884,136.729551 524.021282,136.702084 C522.377446,136.689226 520.619251,136.787993 519.119741,136.279548 C516.880259,135.520386 511.543297,136.575849 510.007094,138.474631 C505.03339,135.474216 505.03339,135.474216 502.570083,138.780867 C499.998532,137.824755 497.556018,136.917735 495.111668,136.008961 C494.714163,131.766069 494.188845,127.244409 493.90203,122.708722 C493.712451,119.726425 493.865949,116.723673 493.865949,112.878771 C490.030333,113.342801 486.490705,113.779947 482.948019,114.19547 C480.996575,114.423978 480.377079,115.374246 480.362402,117.303418 C480.290851,126.651222 480.036448,135.997857 479.834638,145.345661 C479.813845,146.319306 479.710494,147.291781 479.645059,148.265425 C478.791341,147.892565 478.429305,147.50977 478.403009,147.107104 C477.892979,139.19639 477.401296,131.284507 476.958537,123.370286 C476.855186,121.525271 476.877202,119.667398 476.960372,117.82063 C477.089408,114.961061 476.764066,112.240584 474.47566,110.143099 C472.795132,108.603151 471.039384,107.12749 469.21025,105.754102 C468.816414,105.458385 467.883806,105.540789 467.333415,105.758193 C463.817637,107.146776 461.03816,109.073025 460.835739,113.229423 C460.746453,115.074438 460.021159,116.890817 459.627324,118.540051 C458.417074,118.926353 456.751223,118.957327 456.280333,119.689606 C453.699609,123.710418 449.815068,127.049212 448.893469,131.958343 C448.698386,132.99978 448.883684,134.101413 448.758929,135.160967 C448.71612,135.529736 448.268469,135.85409 448.004892,136.198898 C447.643469,135.851168 447.11387,135.558957 446.962818,135.141097 C446.772627,134.615118 446.888209,133.986867 446.877813,133.403031 C446.727373,124.736661 446.605064,116.069706 446.41365,107.404505 C446.349437,104.494676 446.871698,101.290884 445.778865,98.7492392 C443.971747,94.5431657 441.730431,90.5872241 441.550024,85.8884842 C441.462573,83.6063226 440.944594,81.3393559 440.621698,79.0653762 C439.781433,85.7768599 438.478841,92.3749661 437.154232,98.9683969 C436.795254,100.75497 436.115827,102.516997 436.021649,104.311752 C435.71771,110.121476 435.628425,115.941134 435.429672,121.756117 C435.396649,122.709306 435.22725,123.658405 433.796233,124.595815 L433.796233,108.271201 C428.737524,108.086524 424.476272,105.864557 420.090264,108.545294 C420.090264,110.421868 420.186277,112.370325 420.027275,114.299497 C419.984467,114.827229 419.25795,115.533793 418.69227,115.709703 C418.331458,115.821912 417.397016,115.211193 417.222114,114.750669 C416.28706,112.281493 415.509785,109.757966 414.668909,107.226841 C410.608244,107.482818 409.616928,110.963625 407.40252,113.400074 C404.5625,116.526139 406.712696,120.165324 405.296355,123.48717 C403.65252,123.367364 402.055773,123.25048 399.996698,123.099699 C399.996698,120.656822 400.216854,118.317972 399.958782,116.028212 C398.867172,106.350795 401.901052,96.3934407 397.808586,86.9457007 C397.469178,86.1625773 396.4693,85.1001011 395.766023,85.0925036 C392.285103,85.0586072 390.891389,83.6074914 391.558586,80.3481789 C391.474804,81.6257219 391.390411,82.9038493 391.306629,84.1661973 C389.840753,84.2334056 388.760152,84.2830814 387.733366,84.329835 C387.134051,87.5505758 386.567759,90.5878085 385.597236,93.6758859 C385.358121,91.9185337 385.119007,90.1617661 384.357632,88.4377259 C384.357632,95.4309003 384.357632,102.424659 384.146649,109.372833 C382.817759,103.55259 381.48887,97.7329322 379.339286,91.8676892 C378.174902,97.7919586 377.009295,103.717397 375.83635,109.683745 C375.434565,107.793729 375.247432,105.830077 374.583904,104.02714 C373.310665,100.566202 371.717588,97.212798 370.347114,93.7816659 C368.574242,89.3418243 368.612158,89.3277982 363.146159,89.2278623 C361.477862,96.8773407 356.862524,103.871684 357.400073,112.132466 C357.445328,112.822667 356.266267,113.58592 355.656556,114.315276 C355.426003,114.193132 355.19545,114.070404 354.964897,113.947676 C354.826688,114.843592 354.688478,115.740093 353.604207,116.661724 C355.605797,96.1473997 352.398239,76.2122358 346.960983,57 C346.669276,59.1267058 347.0625,62.1277045 345.815558,64.2450595 C342.012353,70.7040737 344.199242,78.475696 340.323263,84.8809434 C339.489114,86.2595911 340.00159,88.4149335 339.994863,90.2126106 C339.969178,97.2198111 339.984467,104.227012 339.984467,111.46798 C336.367172,111.867139 335.541585,114.212418 335.562378,117.132767 C335.580113,119.633502 335.566047,122.134237 335.566047,124.634971 C334.397994,115.921263 333.432975,107.215737 332.437989,98.5143022 C332.362769,97.8579981 332.064335,97.2250709 331.875367,96.5792863 C331.35066,94.7886223 330.62659,93.0248415 330.352006,91.1996967 C329.930039,88.3909723 331.281556,85.1398417 328.053205,83.2486573 C327.594545,83.9575592 327.254525,85.1567899 326.657657,85.2882844 C324.30137,85.8060809 324.04819,87.5260301 323.780333,89.2541612 C322.783513,95.6833699 321.642979,102.099721 320.928082,108.558151 C320.183831,115.277232 319.870108,122.040145 319.105064,128.779681 C318.894692,124.324644 318.684932,119.869023 318.485568,115.631975 C316.05773,114.483589 313.855553,113.442152 311.380015,112.270974 C311.380015,103.370836 311.397138,94.2275787 311.368395,85.0843217 C311.361057,82.5648854 312.162182,79.3657682 310.866316,77.7188716 C309.59797,76.1064557 306.128669,76.0754815 303.625612,75.3478781 C303.236668,75.2345005 302.858733,75.0796291 302.464286,74.9902128 C299.342955,74.2766355 296.501712,76.3624319 296.447285,79.3897295 C296.252813,90.1980001 296.088307,101.006855 295.836962,111.814541 C295.776419,114.414043 295.424168,117.007117 295.206458,119.603696 C293.284369,116.914778 291.685788,119.512527 290.081091,119.661554 C289.937378,118.679143 289.815068,117.836994 289.615093,116.463021 C286.846624,116.813673 284.238381,117.14504 281.381849,117.50738 C281.381849,112.346948 281.308464,107.211646 281.424046,102.079851 C281.46135,100.441721 281.398361,99.3377506 279.339286,98.9339161 C277.91683,98.655732 276.97138,97.8194264 276.579379,96.0486326 C275.997798,93.4269228 274.582069,90.973526 273.414017,88.1922694 C272.762109,88.870197 272.510152,89.0542894 272.362769,89.2968239 C270.34589,92.6245136 270.430895,97.275331 265.704868,98.9181367 C265.473092,98.9987867 265.369129,99.5872981 265.322652,99.9531452 C264.531311,106.244431 263.596869,112.525197 263.042808,118.836937 C262.71135,122.613461 262.981654,126.437908 262.981654,130.548721 C261.090142,129.021631 260.240093,126.538429 257.526663,128.358898 C257.428205,128.424938 255.955602,127.26311 255.864481,126.582845 C255.544643,124.175617 255.538527,121.729233 255.429061,119.29746 C255.285959,116.124057 254.508684,115.467169 251.105431,115.928277 C246.917564,116.495164 242.74682,117.187702 238.557118,117.740564 C237.933953,117.822967 237.244129,117.440172 236.407534,117.226274 C236.407534,116.033472 236.480308,114.961645 236.384295,113.904429 C236.309075,113.072214 236.243028,111.677203 235.800881,111.526422 C232.266756,110.320178 229.146649,107.346063 224.8432,109.151338 C221.454012,110.573233 217.968811,111.783567 214.437745,113.120721 L214.437745,134.237583 L210.225416,134.237583 C210.225416,132.933741 210.232143,131.773667 210.224193,130.613592 C210.1875,125.385367 210.945205,125.698617 205.165484,125.768747 C203.232387,125.792124 201.303571,126.146283 199.36864,126.349661 C199.36864,121.777156 199.254892,116.518541 199.403498,111.26694 C199.529477,106.832358 197.777397,103.325251 194.445083,100.375681 C191.046111,97.3682539 186.596502,97.6739057 183.821918,101.237701 C181.668053,104.003763 180.022994,106.821838 180.321429,110.608882 C180.695083,115.352038 180.457192,120.148376 180.292074,124.916078 C180.247432,126.208231 179.458537,127.464735 179.103841,128.760979 C178.449486,131.150674 177.650807,133.531019 177.313234,135.966298 C177.01113,138.142095 177.249633,140.387439 176.021649,142.646223 C175.829012,140.571531 175.635763,138.496839 175.407657,136.044026 C172.176859,137.253192 170.035837,136.354938 168.973581,133.033677 C168.445205,134.146413 168.100905,134.871095 167.7193,135.675257 C167.014188,134.909666 166.48092,134.330506 165.153253,133.910307 C165.153253,138.153784 165.153253,142.397845 164.035347,146.633724 C164.035347,144.633837 164.067759,142.633951 164.022505,140.635233 C163.996208,139.480418 164.28547,137.650014 163.675147,137.288257 C160.273116,135.267916 161.642979,132.164059 161.487035,129.507869 C161.256482,125.572382 161.427715,121.614687 161.427715,117.756344 L151.593444,117.756344 C151.593444,123.437494 151.593444,128.900656 151.040607,134.362064 C150.537916,131.670809 150.034614,128.980137 149.553938,126.411025 C143.703278,128.448899 146.581213,133.308939 145.255993,136.996047 C144.802838,136.426237 144.588185,136.281885 144.581458,136.128767 C144.493395,134.087971 144.472603,132.044253 144.358244,130.00521 C144.240215,127.912985 141.130504,124.880428 139.083659,125.269068 C136.843567,125.693941 134.734344,126.744729 131.877813,127.771556 C129.664017,126.121737 127.167074,127.623113 125.186277,129.752156 C124.153987,126.944016 123.171844,124.273215 121.434442,121.655596 C120.058464,128.728252 118.681874,135.800907 117.420254,142.280961 C116.359834,141.335953 115.507339,140.268217 114.383317,139.654575 C113.083782,138.945674 111.545132,138.637684 109.700709,138.018198 L109.700709,127.867985 C107.4068,128.415587 105.558097,128.693187 103.837818,129.301568 C100.323875,130.543462 102.172578,133.856541 101.300514,136.169092 C95.8761008,136.855786 90.221135,135.533827 85.5935665,139.796005 C83.7687133,141.475629 80.4669765,141.803489 77.7645548,142.474404 C73.4843444,143.535711 72.9883806,143.969351 72.6581458,148.295815 C72.6073875,148.967899 72.5615215,149.639982 72.5101517,150.346546 C71.5946673,150.224403 70.7562378,150.112194 70.3183708,150.053752 C69.6799168,148.359517 69.1735568,146.972103 68.6347847,145.596378 C68.1920254,144.467277 67.8110323,142.455118 67.2276174,142.396091 C65.4412916,142.212583 63.0960127,141.78771 62.62818,144.15169 C62.0869618,143.056487 61.5114971,141.889983 60.9354207,140.72348 C58.7283513,147.246196 58.7283513,147.246196 56.317637,147.506848 C56.2228474,145.566572 56.3298679,143.597075 55.9788405,141.705891 C55.613136,139.735225 56.0302104,136.962735 52.3254648,137.268387 C51.8515166,137.308128 51.0149217,136.205911 50.7996575,135.505775 C50.5318004,134.63382 50.7354452,133.629201 50.3776908,132.680103 C49.0585861,138.627749 47.7394814,144.574811 46.597725,149.72297 C43.7791096,149.170693 41.1794276,148.344322 38.5436644,148.222178 C34.9318738,148.053865 32.7786204,149.93979 32.6758806,153.736185 L28,153.736185 L28,162 L653,162 L653,153.736185 Z" id="Imported-Layers-copy" fill="#CCCCCC" sketch:type="MSShapeGroup"></path>
        </g>
    </g>
</svg>